<?xml version="1.0"?><svg width="1122.52" height="793.7" xmlns="http://www.w3.org/2000/svg">
 <title>clock hand grey</title>

 <g>
  <title>Layer 1</title>
  <g transform="rotate(179.582 526.181 372.047)" id="layer1">
   <path d="m526.138,37.897202c-1.117004,62.7248 -46.247986,69.010796 -46.876007,96.003799c-0.626984,26.970993 13.471008,28.852997 18.803009,28.852997c5.368011,0 16.632996,-3.93399 16.289001,-15.682999c-0.325989,-11.121994 -4.390991,-14.429993 0,-31.365997c-5.018005,10.662994 -11.274994,15.727997 -18.802002,16.983002c6.899994,3.763 10.343994,7.475998 10.657013,9.358002c0.345978,2.074997 -0.597015,11.263992 -8.751007,11.263992c-8.781006,0 -11.619019,-8.390991 -10.050995,-20.621994c1.646973,-12.849007 31.954987,-33.876701 35.09201,-47.048904c0,26.343903 -1.881042,103.480896 -1.733032,100.855896c-2.240967,80.957001 -9.358002,132.256012 -9.358002,205.091003c0,72.5 0.039001,140.405029 7.105011,249.367004c-14.623993,3.554016 -25.734009,16.083008 -25.734009,31.799011c0,18.454956 14.990997,33.445007 33.445007,33.445007c18.455017,0 33.359009,-14.990051 33.359009,-33.445007c0,-15.746033 -11.085999,-28.275024 -25.734009,-31.799011c7.065979,-108.961975 7.10498,-176.867004 7.10498,-249.367004c0,-72.834991 -7.203979,-124.134003 -9.44397,-205.091003c0.146973,2.625 -1.733032,-74.511993 -1.733032,-100.855896c3.136047,13.172203 33.531006,34.199898 35.17804,47.048904c1.567993,12.231003 -1.269043,20.621994 -10.051025,20.621994c-8.153992,0 -9.182983,-9.188995 -8.838013,-11.263992c0.314026,-1.882004 3.757996,-5.595001 10.65802,-9.358002c-7.526978,-1.255005 -13.783997,-6.320007 -18.802002,-16.983002c4.390015,16.936005 0.325989,20.244003 0,31.365997c-0.344971,11.749008 10.921021,15.682999 16.289001,15.682999c5.332031,0 19.515991,-1.882004 18.888977,-28.852997c-0.627991,-26.993004 -45.844971,-33.278999 -46.961975,-96.003799zm0.085999,615.792801c10.546021,0 19.062988,8.515991 19.062988,19.062012c0,10.544983 -8.516968,19.148987 -19.062988,19.148987c-10.544983,0 -19.14801,-8.604004 -19.14801,-19.148987c0,-10.546021 8.603027,-19.062012 19.14801,-19.062012z" fill="#bfbfbf" id="path5216"/>
  </g>
 </g>
</svg>